<svg width="147" height="34" viewBox="0 0 147 34" fill="none" xmlns="http://www.w3.org/2000/svg">
<g clip-path="url(#clip0)">
<path d="M23.2889 18.1044C23.2817 17.5807 23.251 17.0578 23.1969 16.538C23.0636 15.0247 22.7212 13.5485 22.1839 12.17L21.9747 11.688V11.6077H21.8575H21.4891C20.4658 11.7196 19.4571 11.9758 18.4838 12.3708L18.1825 12.5014V12.2001C17.9908 10.7173 17.6594 9.2654 17.1946 7.87229C16.9298 7.09703 16.6193 6.34536 16.2654 5.62303C15.5315 4.1981 14.6481 2.8921 13.6368 1.73703C13.0906 1.16255 12.5022 0.648361 11.8789 0.200704L11.7366 0.0902489L11.6696 0.0400391L11.6026 0.0902489L11.4687 0.200704C10.0133 1.40528 8.76316 2.93213 7.78531 4.69922C7.02676 6.02072 6.39756 7.44256 5.91013 8.93667C5.55715 10.0062 5.30991 11.1217 5.17346 12.2604C5.17346 12.3708 5.17346 12.4712 5.17346 12.5817C5.17346 12.6921 4.87209 12.4311 4.33633 12.2503L4.14379 12.1901C3.24536 11.9085 2.33018 11.7105 1.40638 11.5976L1.08827 12.5315C0.996184 12.7825 0.9041 13.0335 0.820387 13.2946C0.220423 15.2169 -0.025189 17.2724 0.100455 19.3194C0.169383 20.5637 0.360454 21.7939 0.669704 22.9845C1.49191 26.1736 3.08575 28.9977 5.2488 31.0979C5.95633 31.8155 6.73863 32.4197 7.57603 32.8953C8.88747 33.6273 10.3152 34.0109 11.7617 34.02H11.9626C13.5259 33.8962 15.0495 33.376 16.4329 32.4937C16.751 32.2828 17.0691 32.0318 17.0774 32.0318C17.5064 31.6982 17.9174 31.3327 18.308 30.9373C19.4754 29.7668 20.4763 28.3763 21.2715 26.8203C22.0816 25.2704 22.6807 23.5756 23.0462 21.7996C23.251 20.5841 23.3325 19.3434 23.2889 18.1044ZM11.7198 27.3123C11.7115 28.8022 11.5023 30.2806 11.1003 31.6904C8.72329 31.1804 6.54414 29.7732 4.88047 27.6738C3.81427 26.2304 3.00271 24.5431 2.49465 22.7134C2.03435 21.1376 1.82699 19.4715 1.88354 17.8032C1.94635 16.5495 2.15486 15.3125 2.50301 14.128V14.0678H2.61184C3.35197 14.2262 4.07792 14.4683 4.78001 14.7908L4.98929 14.8912C5.89396 15.4016 6.73841 16.0533 7.50068 16.8292C8.70059 18.0153 9.6765 19.494 10.3637 21.167C10.5227 21.5687 10.6567 21.9904 10.7404 22.2415C11.1095 23.2237 11.3901 24.2504 11.5775 25.3041C11.6778 25.9666 11.7255 26.639 11.7198 27.3123ZM11.6612 19.2793C11.2333 18.4161 10.7431 17.5996 10.1962 16.8392C9.87585 16.3821 9.53196 15.9495 9.16657 15.5439C8.81211 15.1294 8.43755 14.7405 8.04482 14.3791C7.69322 14.0778 7.32488 13.7967 6.95654 13.5356C7.01998 12.8325 7.12064 12.1348 7.25791 11.447C7.61682 9.61285 8.23703 7.86679 9.09123 6.28576C9.60858 5.35554 10.2001 4.48789 10.8576 3.69509C11.1338 3.36372 11.4268 3.03236 11.6947 2.69095C13.031 3.95403 14.1365 5.53308 14.9428 7.33007C15.424 8.44 15.7976 9.61244 16.0561 10.8245C16.2466 11.7007 16.3782 12.5939 16.4496 13.4955C15.4059 14.2173 14.4509 15.1095 13.6117 16.1464C12.8587 17.0925 12.2037 18.1445 11.6612 19.2793ZM19.7646 25.3744C18.2708 28.3615 15.8706 30.5387 13.0676 31.4494C13.2792 30.5804 13.4222 29.6895 13.4945 28.7884C13.565 27.8699 13.565 26.9456 13.4945 26.0271C13.3829 24.5549 13.1012 23.1085 12.6574 21.7294C13.0363 20.7232 13.5111 19.7729 14.0721 18.8977C14.6213 18.0349 15.2535 17.2529 15.9557 16.5681C16.687 15.8687 17.492 15.288 18.3499 14.841C19.1349 14.436 19.9588 14.1493 20.8027 13.9875C20.9488 14.5387 21.0717 15.0984 21.171 15.6644C21.3468 16.9597 21.4305 17.9638 21.4389 18.0643C21.4831 20.6441 20.9015 23.1837 19.7646 25.3744Z" fill="#F49879"/>
<path d="M37.5285 8.52512H40.8771C42.1854 8.4546 43.4841 8.82321 44.6274 9.58951C45.1055 9.97132 45.4936 10.4942 45.7546 11.1079C46.0156 11.7216 46.1405 12.4056 46.1175 13.0939C46.1387 13.8844 45.937 14.6603 45.5451 15.2962C45.1532 15.9321 44.5939 16.3909 43.9577 16.5984C45.7743 17.2511 46.7035 18.6066 46.7035 20.6149C46.715 21.5032 46.501 22.3747 46.0898 23.1137C45.6786 23.8526 45.0897 24.424 44.4014 24.7519C43.2111 25.2521 41.9532 25.4803 40.6929 25.4247H37.5034V8.52512H37.5285ZM43.3884 11.1861C42.4667 10.6567 41.4424 10.4381 40.425 10.5535H39.4539V15.785H40.8017C42.9196 15.785 44.1502 14.9817 44.1502 13.2245C44.1893 12.8348 44.14 12.4397 44.0074 12.0809C43.8747 11.7221 43.6638 11.413 43.3968 11.1861H43.3884ZM41.7142 17.8134H39.4539V23.4265H40.5255C41.5404 23.5054 42.558 23.331 43.514 22.9144C43.8744 22.7258 44.1777 22.4088 44.3829 22.0065C44.588 21.6041 44.6851 21.1359 44.6609 20.6651C44.6692 18.9782 43.6396 17.8234 41.7226 17.8234L41.7142 17.8134Z" fill="#3D4853"/>
<path d="M61.0519 25.7562C59.6067 25.7641 58.1921 25.2573 56.9873 24.3001C55.7824 23.3428 54.8416 21.9781 54.2839 20.3788C53.7263 18.7796 53.5769 17.0178 53.8548 15.3166C54.1327 13.6155 54.8253 12.0516 55.8448 10.823C56.8644 9.59441 58.165 8.75647 59.5819 8.41535C60.9988 8.07423 62.4683 8.24527 63.8041 8.9068C65.1399 9.56833 66.282 10.6906 67.0856 12.1314C67.8892 13.5721 68.3182 15.2666 68.3182 17.0001C68.3293 18.1503 68.1492 19.2916 67.7884 20.3573C67.4276 21.4231 66.8934 22.3919 66.2168 23.2071C65.5403 24.0223 64.7351 24.6676 63.8483 25.1053C62.9615 25.543 62.0108 25.7642 61.0519 25.7562ZM61.0519 10.3226C58.0466 10.3226 55.8449 13.2547 55.8449 17.0001C55.8449 20.7455 58.0466 23.6776 61.0519 23.6776C64.0572 23.6776 66.2588 20.7455 66.2588 17.0001C66.2588 13.2547 64.0572 10.3126 61.0519 10.3126V10.3226Z" fill="#3D4853"/>
<path d="M85.5882 25.4647L77.8447 12.8326V25.4647H75.9109V8.5249H77.5852L85.3538 21.1569V8.5249H87.2875V25.4647H85.6133H85.5882Z" fill="#3D4853"/>
<path d="M97.9275 18.2751V25.5149H95.9937V8.5249H103.16V10.6035H97.9358V16.1463H103.16V18.2751H97.9358H97.9275Z" fill="#3D4853"/>
<path d="M110.794 25.4647V8.5249H112.728V25.4647H110.794Z" fill="#3D4853"/>
<path d="M129.018 25.4647L124.783 18.2751H123.326V25.4345H121.392V8.5249H125.578C127.738 8.5249 130.4 9.8805 130.4 13.3849C130.408 14.5476 130.062 15.6739 129.427 16.5523C128.792 17.4306 127.911 18.0004 126.951 18.1546L131.429 25.4647H129.01H129.018ZM125.486 10.6035H123.326V16.2668H125.084C126.959 16.2668 128.349 15.4434 128.349 13.5054C128.349 11.7482 127.202 10.6035 125.486 10.6035Z" fill="#3D4853"/>
<path d="M138.528 25.4647V8.5249H147.008V10.6035H140.47V15.6844H147.008V17.763H140.47V23.3761H147.008V25.4546H138.528V25.4647Z" fill="#3D4853"/>
</g>
<defs>
<clipPath id="clip0">
<rect width="147" height="34" fill="white"/>
</clipPath>
</defs>
</svg>
