<svg width="800" height="116" viewBox="0 0 800 116" fill="none" xmlns="http://www.w3.org/2000/svg">
<path d="M66.332 43H62.957V17.4062H66.332V43ZM75.0859 23.9805L75.1914 26.3711C76.6445 24.543 78.543 23.6289 80.8867 23.6289C84.9062 23.6289 86.9336 25.8965 86.9688 30.4316V43H83.7168V30.4141C83.7051 29.043 83.3887 28.0293 82.7676 27.373C82.1582 26.7168 81.2031 26.3887 79.9023 26.3887C78.8477 26.3887 77.9219 26.6699 77.125 27.2324C76.3281 27.7949 75.707 28.5332 75.2617 29.4473V43H72.0098V23.9805H75.0859ZM96.2852 19.375V23.9805H99.8359V26.4941H96.2852V38.2891C96.2852 39.0508 96.4434 39.625 96.7598 40.0117C97.0762 40.3867 97.6152 40.5742 98.377 40.5742C98.752 40.5742 99.2676 40.5039 99.9238 40.3633V43C99.0684 43.2344 98.2363 43.3516 97.4277 43.3516C95.9746 43.3516 94.8789 42.9121 94.1406 42.0332C93.4023 41.1543 93.0332 39.9062 93.0332 38.2891V26.4941H89.5703V23.9805H93.0332V19.375H96.2852ZM112.844 26.8984C112.352 26.8164 111.818 26.7754 111.244 26.7754C109.111 26.7754 107.664 27.6836 106.902 29.5V43H103.65V23.9805H106.814L106.867 26.1777C107.934 24.4785 109.445 23.6289 111.402 23.6289C112.035 23.6289 112.516 23.7109 112.844 23.875V26.8984ZM114.637 33.3145C114.637 31.4512 115 29.7754 115.727 28.2871C116.465 26.7988 117.484 25.6504 118.785 24.8418C120.098 24.0332 121.592 23.6289 123.268 23.6289C125.857 23.6289 127.949 24.5254 129.543 26.3184C131.148 28.1113 131.951 30.4961 131.951 33.4727V33.7012C131.951 35.5527 131.594 37.2168 130.879 38.6934C130.176 40.1582 129.162 41.3008 127.838 42.1211C126.525 42.9414 125.014 43.3516 123.303 43.3516C120.725 43.3516 118.633 42.4551 117.027 40.6621C115.434 38.8691 114.637 36.4961 114.637 33.543V33.3145ZM117.906 33.7012C117.906 35.8105 118.393 37.5039 119.365 38.7812C120.35 40.0586 121.662 40.6973 123.303 40.6973C124.955 40.6973 126.268 40.0527 127.24 38.7637C128.213 37.4629 128.699 35.6465 128.699 33.3145C128.699 31.2285 128.201 29.541 127.205 28.252C126.221 26.9512 124.908 26.3008 123.268 26.3008C121.662 26.3008 120.367 26.9395 119.383 28.2168C118.398 29.4941 117.906 31.3223 117.906 33.7012ZM135.238 33.332C135.238 30.4141 135.93 28.0703 137.312 26.3008C138.695 24.5195 140.506 23.6289 142.744 23.6289C144.971 23.6289 146.734 24.3906 148.035 25.9141V16H151.287V43H148.299L148.141 40.9609C146.84 42.5547 145.029 43.3516 142.709 43.3516C140.506 43.3516 138.707 42.4492 137.312 40.6445C135.93 38.8398 135.238 36.4844 135.238 33.5781V33.332ZM138.49 33.7012C138.49 35.8574 138.936 37.5449 139.826 38.7637C140.717 39.9824 141.947 40.5918 143.518 40.5918C145.58 40.5918 147.086 39.666 148.035 37.8145V29.0781C147.062 27.2852 145.568 26.3887 143.553 26.3887C141.959 26.3887 140.717 27.0039 139.826 28.2344C138.936 29.4648 138.49 31.2871 138.49 33.7012ZM168.092 41.1191C166.826 42.6074 164.969 43.3516 162.52 43.3516C160.492 43.3516 158.945 42.7656 157.879 41.5938C156.824 40.4102 156.291 38.6641 156.279 36.3555V23.9805H159.531V36.2676C159.531 39.1504 160.703 40.5918 163.047 40.5918C165.531 40.5918 167.184 39.666 168.004 37.8145V23.9805H171.256V43H168.162L168.092 41.1191ZM183.842 40.6973C185.002 40.6973 186.016 40.3457 186.883 39.6426C187.75 38.9395 188.23 38.0605 188.324 37.0059H191.4C191.342 38.0957 190.967 39.1328 190.275 40.1172C189.584 41.1016 188.658 41.8867 187.498 42.4727C186.35 43.0586 185.131 43.3516 183.842 43.3516C181.252 43.3516 179.189 42.4902 177.654 40.7676C176.131 39.0332 175.369 36.666 175.369 33.666V33.1211C175.369 31.2695 175.709 29.623 176.389 28.1816C177.068 26.7402 178.041 25.6211 179.307 24.8242C180.584 24.0273 182.09 23.6289 183.824 23.6289C185.957 23.6289 187.727 24.2676 189.133 25.5449C190.551 26.8223 191.307 28.4805 191.4 30.5195H188.324C188.23 29.2891 187.762 28.2812 186.918 27.4961C186.086 26.6992 185.055 26.3008 183.824 26.3008C182.172 26.3008 180.889 26.8984 179.975 28.0938C179.072 29.2773 178.621 30.9941 178.621 33.2441V33.8594C178.621 36.0508 179.072 37.7383 179.975 38.9219C180.877 40.1055 182.166 40.6973 183.842 40.6973ZM198.59 43H195.338V23.9805H198.59V43ZM195.074 18.9355C195.074 18.4082 195.232 17.9629 195.549 17.5996C195.877 17.2363 196.357 17.0547 196.99 17.0547C197.623 17.0547 198.104 17.2363 198.432 17.5996C198.76 17.9629 198.924 18.4082 198.924 18.9355C198.924 19.4629 198.76 19.9023 198.432 20.2539C198.104 20.6055 197.623 20.7812 196.99 20.7812C196.357 20.7812 195.877 20.6055 195.549 20.2539C195.232 19.9023 195.074 19.4629 195.074 18.9355ZM206.887 23.9805L206.992 26.3711C208.445 24.543 210.344 23.6289 212.688 23.6289C216.707 23.6289 218.734 25.8965 218.77 30.4316V43H215.518V30.4141C215.506 29.043 215.189 28.0293 214.568 27.373C213.959 26.7168 213.004 26.3887 211.703 26.3887C210.648 26.3887 209.723 26.6699 208.926 27.2324C208.129 27.7949 207.508 28.5332 207.062 29.4473V43H203.811V23.9805H206.887ZM222.9 33.332C222.9 30.3672 223.586 28.0117 224.957 26.2656C226.328 24.5078 228.145 23.6289 230.406 23.6289C232.727 23.6289 234.537 24.4492 235.838 26.0898L235.996 23.9805H238.967V42.543C238.967 45.0039 238.234 46.9434 236.77 48.3613C235.316 49.7793 233.359 50.4883 230.898 50.4883C229.527 50.4883 228.186 50.1953 226.873 49.6094C225.561 49.0234 224.559 48.2207 223.867 47.2012L225.555 45.25C226.949 46.9727 228.654 47.834 230.67 47.834C232.252 47.834 233.482 47.3887 234.361 46.498C235.252 45.6074 235.697 44.3535 235.697 42.7363V41.1016C234.396 42.6016 232.621 43.3516 230.371 43.3516C228.145 43.3516 226.34 42.4551 224.957 40.6621C223.586 38.8691 222.9 36.4258 222.9 33.332ZM226.17 33.7012C226.17 35.8457 226.609 37.5332 227.488 38.7637C228.367 39.9824 229.598 40.5918 231.18 40.5918C233.23 40.5918 234.736 39.6602 235.697 37.7969V29.1133C234.701 27.2969 233.207 26.3887 231.215 26.3887C229.633 26.3887 228.396 27.0039 227.506 28.2344C226.615 29.4648 226.17 31.2871 226.17 33.7012ZM253.328 43V17.4062H261.695C264.473 17.4062 266.559 17.9805 267.953 19.1289C269.359 20.2773 270.062 21.9766 270.062 24.2266C270.062 25.4219 269.723 26.4824 269.043 27.4082C268.363 28.3223 267.438 29.0312 266.266 29.5352C267.648 29.9219 268.738 30.6602 269.535 31.75C270.344 32.8281 270.748 34.1172 270.748 35.6172C270.748 37.9141 270.004 39.7188 268.516 41.0312C267.027 42.3438 264.924 43 262.205 43H253.328ZM256.703 31.0293V40.2402H262.275C263.846 40.2402 265.082 39.8359 265.984 39.0273C266.898 38.207 267.355 37.082 267.355 35.6523C267.355 32.5703 265.68 31.0293 262.328 31.0293H256.703ZM256.703 28.3223H261.801C263.277 28.3223 264.455 27.9531 265.334 27.2148C266.225 26.4766 266.67 25.4746 266.67 24.209C266.67 22.8027 266.26 21.7832 265.439 21.1504C264.619 20.5059 263.371 20.1836 261.695 20.1836H256.703V28.3223ZM274.387 33.3145C274.387 31.4512 274.75 29.7754 275.477 28.2871C276.215 26.7988 277.234 25.6504 278.535 24.8418C279.848 24.0332 281.342 23.6289 283.018 23.6289C285.607 23.6289 287.699 24.5254 289.293 26.3184C290.898 28.1113 291.701 30.4961 291.701 33.4727V33.7012C291.701 35.5527 291.344 37.2168 290.629 38.6934C289.926 40.1582 288.912 41.3008 287.588 42.1211C286.275 42.9414 284.764 43.3516 283.053 43.3516C280.475 43.3516 278.383 42.4551 276.777 40.6621C275.184 38.8691 274.387 36.4961 274.387 33.543V33.3145ZM277.656 33.7012C277.656 35.8105 278.143 37.5039 279.115 38.7812C280.1 40.0586 281.412 40.6973 283.053 40.6973C284.705 40.6973 286.018 40.0527 286.99 38.7637C287.963 37.4629 288.449 35.6465 288.449 33.3145C288.449 31.2285 287.951 29.541 286.955 28.252C285.971 26.9512 284.658 26.3008 283.018 26.3008C281.412 26.3008 280.117 26.9395 279.133 28.2168C278.148 29.4941 277.656 31.3223 277.656 33.7012ZM298.855 23.9805L298.961 26.3711C300.414 24.543 302.312 23.6289 304.656 23.6289C308.676 23.6289 310.703 25.8965 310.738 30.4316V43H307.486V30.4141C307.475 29.043 307.158 28.0293 306.537 27.373C305.928 26.7168 304.973 26.3887 303.672 26.3887C302.617 26.3887 301.691 26.6699 300.895 27.2324C300.098 27.7949 299.477 28.5332 299.031 29.4473V43H295.779V23.9805H298.855ZM316.732 43V26.4941H313.727V23.9805H316.732V22.3633C316.732 20.2422 317.336 18.5898 318.543 17.4062C319.762 16.2227 321.479 15.6309 323.693 15.6309C325.006 15.6309 326.664 15.9883 328.668 16.7031L328.123 19.4453C326.658 18.8594 325.264 18.5664 323.939 18.5664C322.545 18.5664 321.537 18.8828 320.916 19.5156C320.307 20.1367 320.002 21.0742 320.002 22.3281V23.9805H323.887V26.4941H320.002V43H316.732ZM330.285 43H327.016V23.9805H330.285V43ZM344.77 26.8984C344.277 26.8164 343.744 26.7754 343.17 26.7754C341.037 26.7754 339.59 27.6836 338.828 29.5V43H335.576V23.9805H338.74L338.793 26.1777C339.859 24.4785 341.371 23.6289 343.328 23.6289C343.961 23.6289 344.441 23.7109 344.77 23.875V26.8984ZM355.316 43.3516C352.738 43.3516 350.641 42.5078 349.023 40.8203C347.406 39.1211 346.598 36.8535 346.598 34.0176V33.4199C346.598 31.5332 346.955 29.8516 347.67 28.375C348.396 26.8867 349.404 25.7266 350.693 24.8945C351.994 24.0508 353.4 23.6289 354.912 23.6289C357.385 23.6289 359.307 24.4434 360.678 26.0723C362.049 27.7012 362.734 30.0332 362.734 33.0684V34.4219H349.85C349.896 36.2969 350.441 37.8145 351.484 38.9746C352.539 40.123 353.875 40.6973 355.492 40.6973C356.641 40.6973 357.613 40.4629 358.41 39.9941C359.207 39.5254 359.904 38.9043 360.502 38.1309L362.488 39.6777C360.895 42.127 358.504 43.3516 355.316 43.3516ZM354.912 26.3008C353.6 26.3008 352.498 26.7812 351.607 27.7422C350.717 28.6914 350.166 30.0273 349.955 31.75H359.482V31.5039C359.389 29.8516 358.943 28.5742 358.146 27.6719C357.35 26.7578 356.271 26.3008 354.912 26.3008ZM384.303 27.2148L390.438 17.4062H394.41L386.324 30.0977L394.604 43H390.596L384.303 33.0156L377.975 43H373.984L382.281 30.0977L374.178 17.4062H378.133L384.303 27.2148ZM420.76 31.5566H397.275V28.9023H420.76V31.5566ZM429.742 19.375V23.9805H433.293V26.4941H429.742V38.2891C429.742 39.0508 429.9 39.625 430.217 40.0117C430.533 40.3867 431.072 40.5742 431.834 40.5742C432.209 40.5742 432.725 40.5039 433.381 40.3633V43C432.525 43.2344 431.693 43.3516 430.885 43.3516C429.432 43.3516 428.336 42.9121 427.598 42.0332C426.859 41.1543 426.49 39.9062 426.49 38.2891V26.4941H423.027V23.9805H426.49V19.375H429.742ZM440.359 26.2832C441.801 24.5137 443.676 23.6289 445.984 23.6289C450.004 23.6289 452.031 25.8965 452.066 30.4316V43H448.814V30.4141C448.803 29.043 448.486 28.0293 447.865 27.373C447.256 26.7168 446.301 26.3887 445 26.3887C443.945 26.3887 443.02 26.6699 442.223 27.2324C441.426 27.7949 440.805 28.5332 440.359 29.4473V43H437.107V16H440.359V26.2832ZM464.828 43.3516C462.25 43.3516 460.152 42.5078 458.535 40.8203C456.918 39.1211 456.109 36.8535 456.109 34.0176V33.4199C456.109 31.5332 456.467 29.8516 457.182 28.375C457.908 26.8867 458.916 25.7266 460.205 24.8945C461.506 24.0508 462.912 23.6289 464.424 23.6289C466.896 23.6289 468.818 24.4434 470.189 26.0723C471.561 27.7012 472.246 30.0332 472.246 33.0684V34.4219H459.361C459.408 36.2969 459.953 37.8145 460.996 38.9746C462.051 40.123 463.387 40.6973 465.004 40.6973C466.152 40.6973 467.125 40.4629 467.922 39.9941C468.719 39.5254 469.416 38.9043 470.014 38.1309L472 39.6777C470.406 42.127 468.016 43.3516 464.828 43.3516ZM464.424 26.3008C463.111 26.3008 462.01 26.7812 461.119 27.7422C460.229 28.6914 459.678 30.0273 459.467 31.75H468.994V31.5039C468.9 29.8516 468.455 28.5742 467.658 27.6719C466.861 26.7578 465.783 26.3008 464.424 26.3008ZM492.848 43.3516C490.27 43.3516 488.172 42.5078 486.555 40.8203C484.938 39.1211 484.129 36.8535 484.129 34.0176V33.4199C484.129 31.5332 484.486 29.8516 485.201 28.375C485.928 26.8867 486.936 25.7266 488.225 24.8945C489.525 24.0508 490.932 23.6289 492.443 23.6289C494.916 23.6289 496.838 24.4434 498.209 26.0723C499.58 27.7012 500.266 30.0332 500.266 33.0684V34.4219H487.381C487.428 36.2969 487.973 37.8145 489.016 38.9746C490.07 40.123 491.406 40.6973 493.023 40.6973C494.172 40.6973 495.145 40.4629 495.941 39.9941C496.738 39.5254 497.436 38.9043 498.033 38.1309L500.02 39.6777C498.426 42.127 496.035 43.3516 492.848 43.3516ZM492.443 26.3008C491.131 26.3008 490.029 26.7812 489.139 27.7422C488.248 28.6914 487.697 30.0273 487.486 31.75H497.014V31.5039C496.92 29.8516 496.475 28.5742 495.678 27.6719C494.881 26.7578 493.803 26.3008 492.443 26.3008ZM510.426 30.9238L514.645 23.9805H518.441L512.219 33.3848L518.635 43H514.873L510.479 35.8809L506.084 43H502.305L508.721 33.3848L502.498 23.9805H506.26L510.426 30.9238ZM529.182 40.6973C530.342 40.6973 531.355 40.3457 532.223 39.6426C533.09 38.9395 533.57 38.0605 533.664 37.0059H536.74C536.682 38.0957 536.307 39.1328 535.615 40.1172C534.924 41.1016 533.998 41.8867 532.838 42.4727C531.689 43.0586 530.471 43.3516 529.182 43.3516C526.592 43.3516 524.529 42.4902 522.994 40.7676C521.471 39.0332 520.709 36.666 520.709 33.666V33.1211C520.709 31.2695 521.049 29.623 521.729 28.1816C522.408 26.7402 523.381 25.6211 524.646 24.8242C525.924 24.0273 527.43 23.6289 529.164 23.6289C531.297 23.6289 533.066 24.2676 534.473 25.5449C535.891 26.8223 536.646 28.4805 536.74 30.5195H533.664C533.57 29.2891 533.102 28.2812 532.258 27.4961C531.426 26.6992 530.395 26.3008 529.164 26.3008C527.512 26.3008 526.229 26.8984 525.314 28.0938C524.412 29.2773 523.961 30.9941 523.961 33.2441V33.8594C523.961 36.0508 524.412 37.7383 525.314 38.9219C526.217 40.1055 527.506 40.6973 529.182 40.6973ZM543.93 43H540.678V16H543.93V43ZM560.893 41.1191C559.627 42.6074 557.77 43.3516 555.32 43.3516C553.293 43.3516 551.746 42.7656 550.68 41.5938C549.625 40.4102 549.092 38.6641 549.08 36.3555V23.9805H552.332V36.2676C552.332 39.1504 553.504 40.5918 555.848 40.5918C558.332 40.5918 559.984 39.666 560.805 37.8145V23.9805H564.057V43H560.963L560.893 41.1191ZM580.088 37.9551C580.088 37.0762 579.754 36.3965 579.086 35.916C578.43 35.4238 577.275 35.002 575.623 34.6504C573.982 34.2988 572.676 33.877 571.703 33.3848C570.742 32.8926 570.027 32.3066 569.559 31.627C569.102 30.9473 568.873 30.1387 568.873 29.2012C568.873 27.6426 569.529 26.3242 570.842 25.2461C572.166 24.168 573.854 23.6289 575.904 23.6289C578.061 23.6289 579.807 24.1855 581.143 25.2988C582.49 26.4121 583.164 27.8359 583.164 29.5703H579.895C579.895 28.6797 579.514 27.9121 578.752 27.2676C578.002 26.623 577.053 26.3008 575.904 26.3008C574.721 26.3008 573.795 26.5586 573.127 27.0742C572.459 27.5898 572.125 28.2637 572.125 29.0957C572.125 29.8809 572.436 30.4727 573.057 30.8711C573.678 31.2695 574.797 31.6504 576.414 32.0137C578.043 32.377 579.361 32.8105 580.369 33.3145C581.377 33.8184 582.121 34.4277 582.602 35.1426C583.094 35.8457 583.34 36.707 583.34 37.7266C583.34 39.4258 582.66 40.791 581.301 41.8223C579.941 42.8418 578.178 43.3516 576.01 43.3516C574.486 43.3516 573.139 43.082 571.967 42.543C570.795 42.0039 569.875 41.2539 569.207 40.293C568.551 39.3203 568.223 38.2715 568.223 37.1465H571.475C571.533 38.2363 571.967 39.1035 572.775 39.748C573.596 40.3809 574.674 40.6973 576.01 40.6973C577.24 40.6973 578.225 40.4512 578.963 39.959C579.713 39.4551 580.088 38.7871 580.088 37.9551ZM591.109 43H587.857V23.9805H591.109V43ZM587.594 18.9355C587.594 18.4082 587.752 17.9629 588.068 17.5996C588.396 17.2363 588.877 17.0547 589.51 17.0547C590.143 17.0547 590.623 17.2363 590.951 17.5996C591.279 17.9629 591.443 18.4082 591.443 18.9355C591.443 19.4629 591.279 19.9023 590.951 20.2539C590.623 20.6055 590.143 20.7812 589.51 20.7812C588.877 20.7812 588.396 20.6055 588.068 20.2539C587.752 19.9023 587.594 19.4629 587.594 18.9355ZM602.605 38.5879L607.316 23.9805H610.639L603.818 43H601.34L594.449 23.9805H597.771L602.605 38.5879ZM621.414 43.3516C618.836 43.3516 616.738 42.5078 615.121 40.8203C613.504 39.1211 612.695 36.8535 612.695 34.0176V33.4199C612.695 31.5332 613.053 29.8516 613.768 28.375C614.494 26.8867 615.502 25.7266 616.791 24.8945C618.092 24.0508 619.498 23.6289 621.01 23.6289C623.482 23.6289 625.404 24.4434 626.775 26.0723C628.146 27.7012 628.832 30.0332 628.832 33.0684V34.4219H615.947C615.994 36.2969 616.539 37.8145 617.582 38.9746C618.637 40.123 619.973 40.6973 621.59 40.6973C622.738 40.6973 623.711 40.4629 624.508 39.9941C625.305 39.5254 626.002 38.9043 626.6 38.1309L628.586 39.6777C626.992 42.127 624.602 43.3516 621.414 43.3516ZM621.01 26.3008C619.697 26.3008 618.596 26.7812 617.705 27.7422C616.814 28.6914 616.264 30.0273 616.053 31.75H625.58V31.5039C625.486 29.8516 625.041 28.5742 624.244 27.6719C623.447 26.7578 622.369 26.3008 621.01 26.3008ZM644.6 23.9805L644.688 26.0898C646.082 24.4492 647.963 23.6289 650.33 23.6289C652.99 23.6289 654.801 24.6484 655.762 26.6875C656.395 25.7734 657.215 25.0352 658.223 24.4727C659.242 23.9102 660.443 23.6289 661.826 23.6289C665.998 23.6289 668.119 25.8379 668.189 30.2559V43H664.938V30.4492C664.938 29.0898 664.627 28.0762 664.006 27.4082C663.385 26.7285 662.342 26.3887 660.877 26.3887C659.67 26.3887 658.668 26.752 657.871 27.4785C657.074 28.1934 656.611 29.1602 656.482 30.3789V43H653.213V30.5371C653.213 27.7715 651.859 26.3887 649.152 26.3887C647.02 26.3887 645.561 27.2969 644.775 29.1133V43H641.523V23.9805H644.6ZM681.004 43.3516C678.426 43.3516 676.328 42.5078 674.711 40.8203C673.094 39.1211 672.285 36.8535 672.285 34.0176V33.4199C672.285 31.5332 672.643 29.8516 673.357 28.375C674.084 26.8867 675.092 25.7266 676.381 24.8945C677.682 24.0508 679.088 23.6289 680.6 23.6289C683.072 23.6289 684.994 24.4434 686.365 26.0723C687.736 27.7012 688.422 30.0332 688.422 33.0684V34.4219H675.537C675.584 36.2969 676.129 37.8145 677.172 38.9746C678.227 40.123 679.562 40.6973 681.18 40.6973C682.328 40.6973 683.301 40.4629 684.098 39.9941C684.895 39.5254 685.592 38.9043 686.189 38.1309L688.176 39.6777C686.582 42.127 684.191 43.3516 681.004 43.3516ZM680.6 26.3008C679.287 26.3008 678.186 26.7812 677.295 27.7422C676.404 28.6914 675.854 30.0273 675.643 31.75H685.17V31.5039C685.076 29.8516 684.631 28.5742 683.834 27.6719C683.037 26.7578 681.959 26.3008 680.6 26.3008ZM701.395 26.8984C700.902 26.8164 700.369 26.7754 699.795 26.7754C697.662 26.7754 696.215 27.6836 695.453 29.5V43H692.201V23.9805H695.365L695.418 26.1777C696.484 24.4785 697.996 23.6289 699.953 23.6289C700.586 23.6289 701.066 23.7109 701.395 23.875V26.8984ZM711.678 40.6973C712.838 40.6973 713.852 40.3457 714.719 39.6426C715.586 38.9395 716.066 38.0605 716.16 37.0059H719.236C719.178 38.0957 718.803 39.1328 718.111 40.1172C717.42 41.1016 716.494 41.8867 715.334 42.4727C714.186 43.0586 712.967 43.3516 711.678 43.3516C709.088 43.3516 707.025 42.4902 705.49 40.7676C703.967 39.0332 703.205 36.666 703.205 33.666V33.1211C703.205 31.2695 703.545 29.623 704.225 28.1816C704.904 26.7402 705.877 25.6211 707.143 24.8242C708.42 24.0273 709.926 23.6289 711.66 23.6289C713.793 23.6289 715.562 24.2676 716.969 25.5449C718.387 26.8223 719.143 28.4805 719.236 30.5195H716.16C716.066 29.2891 715.598 28.2812 714.754 27.4961C713.922 26.6992 712.891 26.3008 711.66 26.3008C710.008 26.3008 708.725 26.8984 707.811 28.0938C706.908 29.2773 706.457 30.9941 706.457 33.2441V33.8594C706.457 36.0508 706.908 37.7383 707.811 38.9219C708.713 40.1055 710.002 40.6973 711.678 40.6973ZM726.145 26.2832C727.586 24.5137 729.461 23.6289 731.77 23.6289C735.789 23.6289 737.816 25.8965 737.852 30.4316V43H734.6V30.4141C734.588 29.043 734.271 28.0293 733.65 27.373C733.041 26.7168 732.086 26.3887 730.785 26.3887C729.73 26.3887 728.805 26.6699 728.008 27.2324C727.211 27.7949 726.59 28.5332 726.145 29.4473V43H722.893V16H726.145V26.2832ZM46.4336 99.6973C47.5938 99.6973 48.6074 99.3457 49.4746 98.6426C50.3418 97.9395 50.8223 97.0605 50.916 96.0059H53.9922C53.9336 97.0957 53.5586 98.1328 52.8672 99.1172C52.1758 100.102 51.25 100.887 50.0898 101.473C48.9414 102.059 47.7227 102.352 46.4336 102.352C43.8438 102.352 41.7812 101.49 40.2461 99.7676C38.7227 98.0332 37.9609 95.666 37.9609 92.666V92.1211C37.9609 90.2695 38.3008 88.623 38.9805 87.1816C39.6602 85.7402 40.6328 84.6211 41.8984 83.8242C43.1758 83.0273 44.6816 82.6289 46.416 82.6289C48.5488 82.6289 50.3184 83.2676 51.7246 84.5449C53.1426 85.8223 53.8984 87.4805 53.9922 89.5195H50.916C50.8223 88.2891 50.3535 87.2812 49.5098 86.4961C48.6777 85.6992 47.6465 85.3008 46.416 85.3008C44.7637 85.3008 43.4805 85.8984 42.5664 87.0938C41.6641 88.2773 41.2129 89.9941 41.2129 92.2441V92.8594C41.2129 95.0508 41.6641 96.7383 42.5664 97.9219C43.4688 99.1055 44.7578 99.6973 46.4336 99.6973ZM56.7871 92.3145C56.7871 90.4512 57.1504 88.7754 57.877 87.2871C58.6152 85.7988 59.6348 84.6504 60.9355 83.8418C62.248 83.0332 63.7422 82.6289 65.418 82.6289C68.0078 82.6289 70.0996 83.5254 71.6934 85.3184C73.2988 87.1113 74.1016 89.4961 74.1016 92.4727V92.7012C74.1016 94.5527 73.7441 96.2168 73.0293 97.6934C72.3262 99.1582 71.3125 100.301 69.9883 101.121C68.6758 101.941 67.1641 102.352 65.4531 102.352C62.875 102.352 60.7832 101.455 59.1777 99.6621C57.584 97.8691 56.7871 95.4961 56.7871 92.543V92.3145ZM60.0566 92.7012C60.0566 94.8105 60.543 96.5039 61.5156 97.7812C62.5 99.0586 63.8125 99.6973 65.4531 99.6973C67.1055 99.6973 68.418 99.0527 69.3906 97.7637C70.3633 96.4629 70.8496 94.6465 70.8496 92.3145C70.8496 90.2285 70.3516 88.541 69.3555 87.252C68.3711 85.9512 67.0586 85.3008 65.418 85.3008C63.8125 85.3008 62.5176 85.9395 61.5332 87.2168C60.5488 88.4941 60.0566 90.3223 60.0566 92.7012ZM81.2559 82.9805L81.3613 85.3711C82.8145 83.543 84.7129 82.6289 87.0566 82.6289C91.0762 82.6289 93.1035 84.8965 93.1387 89.4316V102H89.8867V89.4141C89.875 88.043 89.5586 87.0293 88.9375 86.373C88.3281 85.7168 87.373 85.3887 86.0723 85.3887C85.0176 85.3887 84.0918 85.6699 83.2949 86.2324C82.498 86.7949 81.877 87.5332 81.4316 88.4473V102H78.1797V82.9805H81.2559ZM105.672 99.6973C106.832 99.6973 107.846 99.3457 108.713 98.6426C109.58 97.9395 110.061 97.0605 110.154 96.0059H113.23C113.172 97.0957 112.797 98.1328 112.105 99.1172C111.414 100.102 110.488 100.887 109.328 101.473C108.18 102.059 106.961 102.352 105.672 102.352C103.082 102.352 101.02 101.49 99.4844 99.7676C97.9609 98.0332 97.1992 95.666 97.1992 92.666V92.1211C97.1992 90.2695 97.5391 88.623 98.2188 87.1816C98.8984 85.7402 99.8711 84.6211 101.137 83.8242C102.414 83.0273 103.92 82.6289 105.654 82.6289C107.787 82.6289 109.557 83.2676 110.963 84.5449C112.381 85.8223 113.137 87.4805 113.23 89.5195H110.154C110.061 88.2891 109.592 87.2812 108.748 86.4961C107.916 85.6992 106.885 85.3008 105.654 85.3008C104.002 85.3008 102.719 85.8984 101.805 87.0938C100.902 88.2773 100.451 89.9941 100.451 92.2441V92.8594C100.451 95.0508 100.902 96.7383 101.805 97.9219C102.707 99.1055 103.996 99.6973 105.672 99.6973ZM120.42 102H117.168V82.9805H120.42V102ZM116.904 77.9355C116.904 77.4082 117.062 76.9629 117.379 76.5996C117.707 76.2363 118.188 76.0547 118.82 76.0547C119.453 76.0547 119.934 76.2363 120.262 76.5996C120.59 76.9629 120.754 77.4082 120.754 77.9355C120.754 78.4629 120.59 78.9023 120.262 79.2539C119.934 79.6055 119.453 79.7812 118.82 79.7812C118.188 79.7812 117.707 79.6055 117.379 79.2539C117.062 78.9023 116.904 78.4629 116.904 77.9355ZM133.533 102.352C130.955 102.352 128.857 101.508 127.24 99.8203C125.623 98.1211 124.814 95.8535 124.814 93.0176V92.4199C124.814 90.5332 125.172 88.8516 125.887 87.375C126.613 85.8867 127.621 84.7266 128.91 83.8945C130.211 83.0508 131.617 82.6289 133.129 82.6289C135.602 82.6289 137.523 83.4434 138.895 85.0723C140.266 86.7012 140.951 89.0332 140.951 92.0684V93.4219H128.066C128.113 95.2969 128.658 96.8145 129.701 97.9746C130.756 99.123 132.092 99.6973 133.709 99.6973C134.857 99.6973 135.83 99.4629 136.627 98.9941C137.424 98.5254 138.121 97.9043 138.719 97.1309L140.705 98.6777C139.111 101.127 136.721 102.352 133.533 102.352ZM133.129 85.3008C131.816 85.3008 130.715 85.7812 129.824 86.7422C128.934 87.6914 128.383 89.0273 128.172 90.75H137.699V90.5039C137.605 88.8516 137.16 87.5742 136.363 86.6719C135.566 85.7578 134.488 85.3008 133.129 85.3008ZM153.924 85.8984C153.432 85.8164 152.898 85.7754 152.324 85.7754C150.191 85.7754 148.744 86.6836 147.982 88.5V102H144.73V82.9805H147.895L147.947 85.1777C149.014 83.4785 150.525 82.6289 152.482 82.6289C153.115 82.6289 153.596 82.7109 153.924 82.875V85.8984ZM155.805 92.332C155.805 89.3672 156.49 87.0117 157.861 85.2656C159.232 83.5078 161.049 82.6289 163.311 82.6289C165.631 82.6289 167.441 83.4492 168.742 85.0898L168.9 82.9805H171.871V101.543C171.871 104.004 171.139 105.943 169.674 107.361C168.221 108.779 166.264 109.488 163.803 109.488C162.432 109.488 161.09 109.195 159.777 108.609C158.465 108.023 157.463 107.221 156.771 106.201L158.459 104.25C159.854 105.973 161.559 106.834 163.574 106.834C165.156 106.834 166.387 106.389 167.266 105.498C168.156 104.607 168.602 103.354 168.602 101.736V100.102C167.301 101.602 165.525 102.352 163.275 102.352C161.049 102.352 159.244 101.455 157.861 99.6621C156.49 97.8691 155.805 95.4258 155.805 92.332ZM159.074 92.7012C159.074 94.8457 159.514 96.5332 160.393 97.7637C161.271 98.9824 162.502 99.5918 164.084 99.5918C166.135 99.5918 167.641 98.6602 168.602 96.7969V88.1133C167.605 86.2969 166.111 85.3887 164.119 85.3887C162.537 85.3887 161.301 86.0039 160.41 87.2344C159.52 88.4648 159.074 90.2871 159.074 92.7012ZM184.686 102.352C182.107 102.352 180.01 101.508 178.393 99.8203C176.775 98.1211 175.967 95.8535 175.967 93.0176V92.4199C175.967 90.5332 176.324 88.8516 177.039 87.375C177.766 85.8867 178.773 84.7266 180.062 83.8945C181.363 83.0508 182.77 82.6289 184.281 82.6289C186.754 82.6289 188.676 83.4434 190.047 85.0723C191.418 86.7012 192.104 89.0332 192.104 92.0684V93.4219H179.219C179.266 95.2969 179.811 96.8145 180.854 97.9746C181.908 99.123 183.244 99.6973 184.861 99.6973C186.01 99.6973 186.982 99.4629 187.779 98.9941C188.576 98.5254 189.273 97.9043 189.871 97.1309L191.857 98.6777C190.264 101.127 187.873 102.352 184.686 102.352ZM184.281 85.3008C182.969 85.3008 181.867 85.7812 180.977 86.7422C180.086 87.6914 179.535 89.0273 179.324 90.75H188.852V90.5039C188.758 88.8516 188.312 87.5742 187.516 86.6719C186.719 85.7578 185.641 85.3008 184.281 85.3008ZM215.887 96.9551C215.887 96.0762 215.553 95.3965 214.885 94.916C214.229 94.4238 213.074 94.002 211.422 93.6504C209.781 93.2988 208.475 92.877 207.502 92.3848C206.541 91.8926 205.826 91.3066 205.357 90.627C204.9 89.9473 204.672 89.1387 204.672 88.2012C204.672 86.6426 205.328 85.3242 206.641 84.2461C207.965 83.168 209.652 82.6289 211.703 82.6289C213.859 82.6289 215.605 83.1855 216.941 84.2988C218.289 85.4121 218.963 86.8359 218.963 88.5703H215.693C215.693 87.6797 215.312 86.9121 214.551 86.2676C213.801 85.623 212.852 85.3008 211.703 85.3008C210.52 85.3008 209.594 85.5586 208.926 86.0742C208.258 86.5898 207.924 87.2637 207.924 88.0957C207.924 88.8809 208.234 89.4727 208.855 89.8711C209.477 90.2695 210.596 90.6504 212.213 91.0137C213.842 91.377 215.16 91.8105 216.168 92.3145C217.176 92.8184 217.92 93.4277 218.4 94.1426C218.893 94.8457 219.139 95.707 219.139 96.7266C219.139 98.4258 218.459 99.791 217.1 100.822C215.74 101.842 213.977 102.352 211.809 102.352C210.285 102.352 208.938 102.082 207.766 101.543C206.594 101.004 205.674 100.254 205.006 99.293C204.35 98.3203 204.021 97.2715 204.021 96.1465H207.273C207.332 97.2363 207.766 98.1035 208.574 98.748C209.395 99.3809 210.473 99.6973 211.809 99.6973C213.039 99.6973 214.023 99.4512 214.762 98.959C215.512 98.4551 215.887 97.7871 215.887 96.9551ZM231.268 102.352C228.689 102.352 226.592 101.508 224.975 99.8203C223.357 98.1211 222.549 95.8535 222.549 93.0176V92.4199C222.549 90.5332 222.906 88.8516 223.621 87.375C224.348 85.8867 225.355 84.7266 226.645 83.8945C227.945 83.0508 229.352 82.6289 230.863 82.6289C233.336 82.6289 235.258 83.4434 236.629 85.0723C238 86.7012 238.686 89.0332 238.686 92.0684V93.4219H225.801C225.848 95.2969 226.393 96.8145 227.436 97.9746C228.49 99.123 229.826 99.6973 231.443 99.6973C232.592 99.6973 233.564 99.4629 234.361 98.9941C235.158 98.5254 235.855 97.9043 236.453 97.1309L238.439 98.6777C236.846 101.127 234.455 102.352 231.268 102.352ZM230.863 85.3008C229.551 85.3008 228.449 85.7812 227.559 86.7422C226.668 87.6914 226.117 89.0273 225.906 90.75H235.434V90.5039C235.34 88.8516 234.895 87.5742 234.098 86.6719C233.301 85.7578 232.223 85.3008 230.863 85.3008ZM251.658 85.8984C251.166 85.8164 250.633 85.7754 250.059 85.7754C247.926 85.7754 246.479 86.6836 245.717 88.5V102H242.465V82.9805H245.629L245.682 85.1777C246.748 83.4785 248.26 82.6289 250.217 82.6289C250.85 82.6289 251.33 82.7109 251.658 82.875V85.8984ZM261.256 97.5879L265.967 82.9805H269.289L262.469 102H259.99L253.1 82.9805H256.422L261.256 97.5879ZM275.951 102H272.699V82.9805H275.951V102ZM272.436 77.9355C272.436 77.4082 272.594 76.9629 272.91 76.5996C273.238 76.2363 273.719 76.0547 274.352 76.0547C274.984 76.0547 275.465 76.2363 275.793 76.5996C276.121 76.9629 276.285 77.4082 276.285 77.9355C276.285 78.4629 276.121 78.9023 275.793 79.2539C275.465 79.6055 274.984 79.7812 274.352 79.7812C273.719 79.7812 273.238 79.6055 272.91 79.2539C272.594 78.9023 272.436 78.4629 272.436 77.9355ZM288.801 99.6973C289.961 99.6973 290.975 99.3457 291.842 98.6426C292.709 97.9395 293.189 97.0605 293.283 96.0059H296.359C296.301 97.0957 295.926 98.1328 295.234 99.1172C294.543 100.102 293.617 100.887 292.457 101.473C291.309 102.059 290.09 102.352 288.801 102.352C286.211 102.352 284.148 101.49 282.613 99.7676C281.09 98.0332 280.328 95.666 280.328 92.666V92.1211C280.328 90.2695 280.668 88.623 281.348 87.1816C282.027 85.7402 283 84.6211 284.266 83.8242C285.543 83.0273 287.049 82.6289 288.783 82.6289C290.916 82.6289 292.686 83.2676 294.092 84.5449C295.51 85.8223 296.266 87.4805 296.359 89.5195H293.283C293.189 88.2891 292.721 87.2812 291.877 86.4961C291.045 85.6992 290.014 85.3008 288.783 85.3008C287.131 85.3008 285.848 85.8984 284.934 87.0938C284.031 88.2773 283.58 89.9941 283.58 92.2441V92.8594C283.58 95.0508 284.031 96.7383 284.934 97.9219C285.836 99.1055 287.125 99.6973 288.801 99.6973ZM307.908 102.352C305.33 102.352 303.232 101.508 301.615 99.8203C299.998 98.1211 299.189 95.8535 299.189 93.0176V92.4199C299.189 90.5332 299.547 88.8516 300.262 87.375C300.988 85.8867 301.996 84.7266 303.285 83.8945C304.586 83.0508 305.992 82.6289 307.504 82.6289C309.977 82.6289 311.898 83.4434 313.27 85.0723C314.641 86.7012 315.326 89.0332 315.326 92.0684V93.4219H302.441C302.488 95.2969 303.033 96.8145 304.076 97.9746C305.131 99.123 306.467 99.6973 308.084 99.6973C309.232 99.6973 310.205 99.4629 311.002 98.9941C311.799 98.5254 312.496 97.9043 313.094 97.1309L315.08 98.6777C313.486 101.127 311.096 102.352 307.908 102.352ZM307.504 85.3008C306.191 85.3008 305.09 85.7812 304.199 86.7422C303.309 87.6914 302.758 89.0273 302.547 90.75H312.074V90.5039C311.98 88.8516 311.535 87.5742 310.738 86.6719C309.941 85.7578 308.863 85.3008 307.504 85.3008ZM329.635 102V85.4941H326.629V82.9805H329.635V81.0293C329.635 78.9902 330.18 77.4141 331.27 76.3008C332.359 75.1875 333.9 74.6309 335.893 74.6309C336.643 74.6309 337.387 74.7305 338.125 74.9297L337.949 77.5664C337.398 77.4609 336.812 77.4082 336.191 77.4082C335.137 77.4082 334.322 77.7188 333.748 78.3398C333.174 78.9492 332.887 79.8281 332.887 80.9766V82.9805H336.947V85.4941H332.887V102H329.635ZM339.689 92.3145C339.689 90.4512 340.053 88.7754 340.779 87.2871C341.518 85.7988 342.537 84.6504 343.838 83.8418C345.15 83.0332 346.645 82.6289 348.32 82.6289C350.91 82.6289 353.002 83.5254 354.596 85.3184C356.201 87.1113 357.004 89.4961 357.004 92.4727V92.7012C357.004 94.5527 356.646 96.2168 355.932 97.6934C355.229 99.1582 354.215 100.301 352.891 101.121C351.578 101.941 350.066 102.352 348.355 102.352C345.777 102.352 343.686 101.455 342.08 99.6621C340.486 97.8691 339.689 95.4961 339.689 92.543V92.3145ZM342.959 92.7012C342.959 94.8105 343.445 96.5039 344.418 97.7812C345.402 99.0586 346.715 99.6973 348.355 99.6973C350.008 99.6973 351.32 99.0527 352.293 97.7637C353.266 96.4629 353.752 94.6465 353.752 92.3145C353.752 90.2285 353.254 88.541 352.258 87.252C351.273 85.9512 349.961 85.3008 348.32 85.3008C346.715 85.3008 345.42 85.9395 344.436 87.2168C343.451 88.4941 342.959 90.3223 342.959 92.7012ZM370.275 85.8984C369.783 85.8164 369.25 85.7754 368.676 85.7754C366.543 85.7754 365.096 86.6836 364.334 88.5V102H361.082V82.9805H364.246L364.299 85.1777C365.365 83.4785 366.877 82.6289 368.834 82.6289C369.467 82.6289 369.947 82.7109 370.275 82.875V85.8984ZM386.623 78.375V82.9805H390.174V85.4941H386.623V97.2891C386.623 98.0508 386.781 98.625 387.098 99.0117C387.414 99.3867 387.953 99.5742 388.715 99.5742C389.09 99.5742 389.605 99.5039 390.262 99.3633V102C389.406 102.234 388.574 102.352 387.766 102.352C386.312 102.352 385.217 101.912 384.479 101.033C383.74 100.154 383.371 98.9062 383.371 97.2891V85.4941H379.908V82.9805H383.371V78.375H386.623ZM397.24 85.2832C398.682 83.5137 400.557 82.6289 402.865 82.6289C406.885 82.6289 408.912 84.8965 408.947 89.4316V102H405.695V89.4141C405.684 88.043 405.367 87.0293 404.746 86.373C404.137 85.7168 403.182 85.3887 401.881 85.3887C400.826 85.3887 399.9 85.6699 399.104 86.2324C398.307 86.7949 397.686 87.5332 397.24 88.4473V102H393.988V75H397.24V85.2832ZM421.709 102.352C419.131 102.352 417.033 101.508 415.416 99.8203C413.799 98.1211 412.99 95.8535 412.99 93.0176V92.4199C412.99 90.5332 413.348 88.8516 414.062 87.375C414.789 85.8867 415.797 84.7266 417.086 83.8945C418.387 83.0508 419.793 82.6289 421.305 82.6289C423.777 82.6289 425.699 83.4434 427.07 85.0723C428.441 86.7012 429.127 89.0332 429.127 92.0684V93.4219H416.242C416.289 95.2969 416.834 96.8145 417.877 97.9746C418.932 99.123 420.268 99.6973 421.885 99.6973C423.033 99.6973 424.006 99.4629 424.803 98.9941C425.6 98.5254 426.297 97.9043 426.895 97.1309L428.881 98.6777C427.287 101.127 424.896 102.352 421.709 102.352ZM421.305 85.3008C419.992 85.3008 418.891 85.7812 418 86.7422C417.109 87.6914 416.559 89.0273 416.348 90.75H425.875V90.5039C425.781 88.8516 425.336 87.5742 424.539 86.6719C423.742 85.7578 422.664 85.3008 421.305 85.3008ZM458.676 97.5176L462.332 82.9805H465.584L460.047 102H457.41L452.787 87.5859L448.287 102H445.65L440.131 82.9805H443.365L447.109 97.2188L451.539 82.9805H454.158L458.676 97.5176ZM468.045 92.3145C468.045 90.4512 468.408 88.7754 469.135 87.2871C469.873 85.7988 470.893 84.6504 472.193 83.8418C473.506 83.0332 475 82.6289 476.676 82.6289C479.266 82.6289 481.357 83.5254 482.951 85.3184C484.557 87.1113 485.359 89.4961 485.359 92.4727V92.7012C485.359 94.5527 485.002 96.2168 484.287 97.6934C483.584 99.1582 482.57 100.301 481.246 101.121C479.934 101.941 478.422 102.352 476.711 102.352C474.133 102.352 472.041 101.455 470.436 99.6621C468.842 97.8691 468.045 95.4961 468.045 92.543V92.3145ZM471.314 92.7012C471.314 94.8105 471.801 96.5039 472.773 97.7812C473.758 99.0586 475.07 99.6973 476.711 99.6973C478.363 99.6973 479.676 99.0527 480.648 97.7637C481.621 96.4629 482.107 94.6465 482.107 92.3145C482.107 90.2285 481.609 88.541 480.613 87.252C479.629 85.9512 478.316 85.3008 476.676 85.3008C475.07 85.3008 473.775 85.9395 472.791 87.2168C471.807 88.4941 471.314 90.3223 471.314 92.7012ZM498.631 85.8984C498.139 85.8164 497.605 85.7754 497.031 85.7754C494.898 85.7754 493.451 86.6836 492.689 88.5V102H489.438V82.9805H492.602L492.654 85.1777C493.721 83.4785 495.232 82.6289 497.189 82.6289C497.822 82.6289 498.303 82.7109 498.631 82.875V85.8984ZM505.17 102H501.918V75H505.17V102ZM509.6 92.332C509.6 89.4141 510.291 87.0703 511.674 85.3008C513.057 83.5195 514.867 82.6289 517.105 82.6289C519.332 82.6289 521.096 83.3906 522.396 84.9141V75H525.648V102H522.66L522.502 99.9609C521.201 101.555 519.391 102.352 517.07 102.352C514.867 102.352 513.068 101.449 511.674 99.6445C510.291 97.8398 509.6 95.4844 509.6 92.5781V92.332ZM512.852 92.7012C512.852 94.8574 513.297 96.5449 514.188 97.7637C515.078 98.9824 516.309 99.5918 517.879 99.5918C519.941 99.5918 521.447 98.666 522.396 96.8145V88.0781C521.424 86.2852 519.93 85.3887 517.914 85.3887C516.32 85.3887 515.078 86.0039 514.188 87.2344C513.297 88.4648 512.852 90.2871 512.852 92.7012ZM530.939 83.6133L529.094 82.3477C530.184 80.8242 530.746 79.2188 530.781 77.5312V75H533.998V77.2852C533.986 78.457 533.693 79.6289 533.119 80.8008C532.557 81.9609 531.83 82.8984 530.939 83.6133ZM547.023 96.9551C547.023 96.0762 546.689 95.3965 546.021 94.916C545.365 94.4238 544.211 94.002 542.559 93.6504C540.918 93.2988 539.611 92.877 538.639 92.3848C537.678 91.8926 536.963 91.3066 536.494 90.627C536.037 89.9473 535.809 89.1387 535.809 88.2012C535.809 86.6426 536.465 85.3242 537.777 84.2461C539.102 83.168 540.789 82.6289 542.84 82.6289C544.996 82.6289 546.742 83.1855 548.078 84.2988C549.426 85.4121 550.1 86.8359 550.1 88.5703H546.83C546.83 87.6797 546.449 86.9121 545.688 86.2676C544.938 85.623 543.988 85.3008 542.84 85.3008C541.656 85.3008 540.73 85.5586 540.062 86.0742C539.395 86.5898 539.061 87.2637 539.061 88.0957C539.061 88.8809 539.371 89.4727 539.992 89.8711C540.613 90.2695 541.732 90.6504 543.35 91.0137C544.979 91.377 546.297 91.8105 547.305 92.3145C548.312 92.8184 549.057 93.4277 549.537 94.1426C550.029 94.8457 550.275 95.707 550.275 96.7266C550.275 98.4258 549.596 99.791 548.236 100.822C546.877 101.842 545.113 102.352 542.945 102.352C541.422 102.352 540.074 102.082 538.902 101.543C537.73 101.004 536.811 100.254 536.143 99.293C535.486 98.3203 535.158 97.2715 535.158 96.1465H538.41C538.469 97.2363 538.902 98.1035 539.711 98.748C540.531 99.3809 541.609 99.6973 542.945 99.6973C544.176 99.6973 545.16 99.4512 545.898 98.959C546.648 98.4551 547.023 97.7871 547.023 96.9551ZM567.854 78.375V82.9805H571.404V85.4941H567.854V97.2891C567.854 98.0508 568.012 98.625 568.328 99.0117C568.645 99.3867 569.184 99.5742 569.945 99.5742C570.32 99.5742 570.836 99.5039 571.492 99.3633V102C570.637 102.234 569.805 102.352 568.996 102.352C567.543 102.352 566.447 101.912 565.709 101.033C564.971 100.154 564.602 98.9062 564.602 97.2891V85.4941H561.139V82.9805H564.602V78.375H567.854ZM574.006 92.3145C574.006 90.4512 574.369 88.7754 575.096 87.2871C575.834 85.7988 576.854 84.6504 578.154 83.8418C579.467 83.0332 580.961 82.6289 582.637 82.6289C585.227 82.6289 587.318 83.5254 588.912 85.3184C590.518 87.1113 591.32 89.4961 591.32 92.4727V92.7012C591.32 94.5527 590.963 96.2168 590.248 97.6934C589.545 99.1582 588.531 100.301 587.207 101.121C585.895 101.941 584.383 102.352 582.672 102.352C580.094 102.352 578.002 101.455 576.396 99.6621C574.803 97.8691 574.006 95.4961 574.006 92.543V92.3145ZM577.275 92.7012C577.275 94.8105 577.762 96.5039 578.734 97.7812C579.719 99.0586 581.031 99.6973 582.672 99.6973C584.324 99.6973 585.637 99.0527 586.609 97.7637C587.582 96.4629 588.068 94.6465 588.068 92.3145C588.068 90.2285 587.57 88.541 586.574 87.252C585.59 85.9512 584.277 85.3008 582.637 85.3008C581.031 85.3008 579.736 85.9395 578.752 87.2168C577.768 88.4941 577.275 90.3223 577.275 92.7012ZM611.465 92.7012C611.465 95.5957 610.803 97.9277 609.479 99.6973C608.154 101.467 606.361 102.352 604.1 102.352C601.791 102.352 599.975 101.619 598.65 100.154V109.312H595.398V82.9805H598.369L598.527 85.0898C599.852 83.4492 601.691 82.6289 604.047 82.6289C606.332 82.6289 608.137 83.4902 609.461 85.2129C610.797 86.9355 611.465 89.332 611.465 92.4023V92.7012ZM608.213 92.332C608.213 90.1875 607.756 88.4941 606.842 87.252C605.928 86.0098 604.674 85.3887 603.08 85.3887C601.111 85.3887 599.635 86.2617 598.65 88.0078V97.0957C599.623 98.8301 601.111 99.6973 603.115 99.6973C604.674 99.6973 605.91 99.082 606.824 97.8516C607.75 96.6094 608.213 94.7695 608.213 92.332ZM632.172 99.6973C633.332 99.6973 634.346 99.3457 635.213 98.6426C636.08 97.9395 636.561 97.0605 636.654 96.0059H639.73C639.672 97.0957 639.297 98.1328 638.605 99.1172C637.914 100.102 636.988 100.887 635.828 101.473C634.68 102.059 633.461 102.352 632.172 102.352C629.582 102.352 627.52 101.49 625.984 99.7676C624.461 98.0332 623.699 95.666 623.699 92.666V92.1211C623.699 90.2695 624.039 88.623 624.719 87.1816C625.398 85.7402 626.371 84.6211 627.637 83.8242C628.914 83.0273 630.42 82.6289 632.154 82.6289C634.287 82.6289 636.057 83.2676 637.463 84.5449C638.881 85.8223 639.637 87.4805 639.73 89.5195H636.654C636.561 88.2891 636.092 87.2812 635.248 86.4961C634.416 85.6992 633.385 85.3008 632.154 85.3008C630.502 85.3008 629.219 85.8984 628.305 87.0938C627.402 88.2773 626.951 89.9941 626.951 92.2441V92.8594C626.951 95.0508 627.402 96.7383 628.305 97.9219C629.207 99.1055 630.496 99.6973 632.172 99.6973ZM652.58 85.8984C652.088 85.8164 651.555 85.7754 650.98 85.7754C648.848 85.7754 647.4 86.6836 646.639 88.5V102H643.387V82.9805H646.551L646.604 85.1777C647.67 83.4785 649.182 82.6289 651.139 82.6289C651.771 82.6289 652.252 82.7109 652.58 82.875V85.8984ZM663.127 102.352C660.549 102.352 658.451 101.508 656.834 99.8203C655.217 98.1211 654.408 95.8535 654.408 93.0176V92.4199C654.408 90.5332 654.766 88.8516 655.48 87.375C656.207 85.8867 657.215 84.7266 658.504 83.8945C659.805 83.0508 661.211 82.6289 662.723 82.6289C665.195 82.6289 667.117 83.4434 668.488 85.0723C669.859 86.7012 670.545 89.0332 670.545 92.0684V93.4219H657.66C657.707 95.2969 658.252 96.8145 659.295 97.9746C660.35 99.123 661.686 99.6973 663.303 99.6973C664.451 99.6973 665.424 99.4629 666.221 98.9941C667.018 98.5254 667.715 97.9043 668.312 97.1309L670.299 98.6777C668.705 101.127 666.314 102.352 663.127 102.352ZM662.723 85.3008C661.41 85.3008 660.309 85.7812 659.418 86.7422C658.527 87.6914 657.977 89.0273 657.766 90.75H667.293V90.5039C667.199 88.8516 666.754 87.5742 665.957 86.6719C665.16 85.7578 664.082 85.3008 662.723 85.3008ZM686.066 102C685.879 101.625 685.727 100.957 685.609 99.9961C684.098 101.566 682.293 102.352 680.195 102.352C678.32 102.352 676.779 101.824 675.572 100.77C674.377 99.7031 673.779 98.3555 673.779 96.7266C673.779 94.7461 674.529 93.2109 676.029 92.1211C677.541 91.0195 679.662 90.4688 682.393 90.4688H685.557V88.9746C685.557 87.8379 685.217 86.9355 684.537 86.2676C683.857 85.5879 682.855 85.248 681.531 85.248C680.371 85.248 679.398 85.541 678.613 86.127C677.828 86.7129 677.436 87.4219 677.436 88.2539H674.166C674.166 87.3047 674.5 86.3906 675.168 85.5117C675.848 84.6211 676.762 83.918 677.91 83.4023C679.07 82.8867 680.342 82.6289 681.725 82.6289C683.916 82.6289 685.633 83.1797 686.875 84.2812C688.117 85.3711 688.762 86.877 688.809 88.7988V97.5527C688.809 99.2988 689.031 100.688 689.477 101.719V102H686.066ZM680.67 99.5215C681.689 99.5215 682.656 99.2578 683.57 98.7305C684.484 98.2031 685.146 97.5176 685.557 96.6738V92.7715H683.008C679.023 92.7715 677.031 93.9375 677.031 96.2695C677.031 97.2891 677.371 98.0859 678.051 98.6602C678.73 99.2344 679.604 99.5215 680.67 99.5215ZM698.318 78.375V82.9805H701.869V85.4941H698.318V97.2891C698.318 98.0508 698.477 98.625 698.793 99.0117C699.109 99.3867 699.648 99.5742 700.41 99.5742C700.785 99.5742 701.301 99.5039 701.957 99.3633V102C701.102 102.234 700.27 102.352 699.461 102.352C698.008 102.352 696.912 101.912 696.174 101.033C695.436 100.154 695.066 98.9062 695.066 97.2891V85.4941H691.604V82.9805H695.066V78.375H698.318ZM704.471 92.3145C704.471 90.4512 704.834 88.7754 705.561 87.2871C706.299 85.7988 707.318 84.6504 708.619 83.8418C709.932 83.0332 711.426 82.6289 713.102 82.6289C715.691 82.6289 717.783 83.5254 719.377 85.3184C720.982 87.1113 721.785 89.4961 721.785 92.4727V92.7012C721.785 94.5527 721.428 96.2168 720.713 97.6934C720.01 99.1582 718.996 100.301 717.672 101.121C716.359 101.941 714.848 102.352 713.137 102.352C710.559 102.352 708.467 101.455 706.861 99.6621C705.268 97.8691 704.471 95.4961 704.471 92.543V92.3145ZM707.74 92.7012C707.74 94.8105 708.227 96.5039 709.199 97.7812C710.184 99.0586 711.496 99.6973 713.137 99.6973C714.789 99.6973 716.102 99.0527 717.074 97.7637C718.047 96.4629 718.533 94.6465 718.533 92.3145C718.533 90.2285 718.035 88.541 717.039 87.252C716.055 85.9512 714.742 85.3008 713.102 85.3008C711.496 85.3008 710.201 85.9395 709.217 87.2168C708.232 88.4941 707.74 90.3223 707.74 92.7012ZM735.057 85.8984C734.564 85.8164 734.031 85.7754 733.457 85.7754C731.324 85.7754 729.877 86.6836 729.115 88.5V102H725.863V82.9805H729.027L729.08 85.1777C730.146 83.4785 731.658 82.6289 733.615 82.6289C734.248 82.6289 734.729 82.7109 735.057 82.875V85.8984ZM749.137 96.9551C749.137 96.0762 748.803 95.3965 748.135 94.916C747.479 94.4238 746.324 94.002 744.672 93.6504C743.031 93.2988 741.725 92.877 740.752 92.3848C739.791 91.8926 739.076 91.3066 738.607 90.627C738.15 89.9473 737.922 89.1387 737.922 88.2012C737.922 86.6426 738.578 85.3242 739.891 84.2461C741.215 83.168 742.902 82.6289 744.953 82.6289C747.109 82.6289 748.855 83.1855 750.191 84.2988C751.539 85.4121 752.213 86.8359 752.213 88.5703H748.943C748.943 87.6797 748.562 86.9121 747.801 86.2676C747.051 85.623 746.102 85.3008 744.953 85.3008C743.77 85.3008 742.844 85.5586 742.176 86.0742C741.508 86.5898 741.174 87.2637 741.174 88.0957C741.174 88.8809 741.484 89.4727 742.105 89.8711C742.727 90.2695 743.846 90.6504 745.463 91.0137C747.092 91.377 748.41 91.8105 749.418 92.3145C750.426 92.8184 751.17 93.4277 751.65 94.1426C752.143 94.8457 752.389 95.707 752.389 96.7266C752.389 98.4258 751.709 99.791 750.35 100.822C748.99 101.842 747.227 102.352 745.059 102.352C743.535 102.352 742.188 102.082 741.016 101.543C739.844 101.004 738.924 100.254 738.256 99.293C737.6 98.3203 737.271 97.2715 737.271 96.1465H740.523C740.582 97.2363 741.016 98.1035 741.824 98.748C742.645 99.3809 743.723 99.6973 745.059 99.6973C746.289 99.6973 747.273 99.4512 748.012 98.959C748.762 98.4551 749.137 97.7871 749.137 96.9551ZM756.695 100.295C756.695 99.7324 756.859 99.2637 757.188 98.8887C757.527 98.5137 758.031 98.3262 758.699 98.3262C759.367 98.3262 759.871 98.5137 760.211 98.8887C760.562 99.2637 760.738 99.7324 760.738 100.295C760.738 100.834 760.562 101.285 760.211 101.648C759.871 102.012 759.367 102.193 758.699 102.193C758.031 102.193 757.527 102.012 757.188 101.648C756.859 101.285 756.695 100.834 756.695 100.295Z" fill="url(#paint0_radial)"/>
<defs>
<radialGradient id="paint0_radial" cx="0" cy="0" r="1" gradientUnits="userSpaceOnUse" gradientTransform="translate(400 60.5) rotate(90) scale(58.5 371)">
<stop stop-color="#EB9038"/>
<stop offset="0.5" stop-color="#F3C3CF"/>
<stop offset="1" stop-color="#8DC4F3"/>
</radialGradient>
</defs>
</svg>
