<svg width="871" height="447" viewBox="0 0 871 447" fill="none" xmlns="http://www.w3.org/2000/svg">
<path d="M87.0757 18.4951H51.1987V118H36.5566V18.4951H0.756348V6.38281H87.0757V18.4951ZM143.881 118C143.063 116.365 142.399 113.451 141.888 109.261C135.295 116.109 127.424 119.533 118.276 119.533C110.099 119.533 103.379 117.233 98.1147 112.634C92.9019 107.983 90.2954 102.106 90.2954 95.002C90.2954 86.3649 93.5662 79.6699 100.108 74.917C106.701 70.113 115.951 67.7109 127.859 67.7109H141.658V61.1948C141.658 56.2375 140.176 52.3022 137.211 49.3892C134.247 46.425 129.878 44.9429 124.103 44.9429C119.043 44.9429 114.801 46.2205 111.377 48.7759C107.953 51.3312 106.241 54.4232 106.241 58.0518H91.9819C91.9819 53.9121 93.4385 49.9258 96.3516 46.0928C99.3158 42.2087 103.302 39.1423 108.311 36.8936C113.37 34.6449 118.915 33.5205 124.946 33.5205C134.503 33.5205 141.99 35.9225 147.407 40.7266C152.825 45.4795 155.635 52.0467 155.84 60.4282V98.605C155.84 106.22 156.811 112.276 158.753 116.773V118H143.881ZM120.346 107.191C124.792 107.191 129.009 106.041 132.995 103.741C136.981 101.441 139.869 98.4517 141.658 94.772V77.7534H130.542C113.166 77.7534 104.478 82.8385 104.478 93.0088C104.478 97.4551 105.96 100.93 108.924 103.435C111.888 105.939 115.695 107.191 120.346 107.191ZM201.223 79.5933L192.33 88.8691V118H178.148V0.25H192.33V71.4673L199.919 62.3447L225.754 35.0537H243.002L210.729 69.7041L246.759 118H230.124L201.223 79.5933ZM290.532 119.533C279.288 119.533 270.14 115.854 263.087 108.494C256.035 101.084 252.508 91.1945 252.508 78.8267V76.2202C252.508 67.992 254.067 60.6582 257.185 54.2188C260.353 47.7282 264.748 42.6686 270.37 39.04C276.043 35.3604 282.176 33.5205 288.769 33.5205C299.552 33.5205 307.934 37.0724 313.913 44.1763C319.893 51.2801 322.882 61.4504 322.882 74.687V80.5898H266.69C266.895 88.7669 269.271 95.3853 273.82 100.445C278.419 105.453 284.246 107.958 291.298 107.958C296.307 107.958 300.549 106.935 304.024 104.891C307.499 102.847 310.54 100.138 313.146 96.7651L321.809 103.511C314.859 114.193 304.433 119.533 290.532 119.533ZM288.769 45.1729C283.045 45.1729 278.241 47.2682 274.356 51.459C270.472 55.5986 268.07 61.4248 267.15 68.9375H308.7V67.8643C308.291 60.6582 306.349 55.0876 302.874 51.1523C299.399 47.166 294.697 45.1729 288.769 45.1729ZM405.445 97.2251L424.764 35.0537H439.942L406.595 130.802C401.433 144.601 393.231 151.5 381.987 151.5L379.304 151.271L374.015 150.274V138.775L377.848 139.082C382.652 139.082 386.382 138.111 389.04 136.168C391.749 134.226 393.972 130.674 395.709 125.513L398.853 117.08L369.262 35.0537H384.747L405.445 97.2251ZM447.685 75.7603C447.685 67.6343 449.269 60.326 452.438 53.8354C455.658 47.3449 460.104 42.3364 465.777 38.8101C471.501 35.2837 478.017 33.5205 485.325 33.5205C496.62 33.5205 505.742 37.4302 512.693 45.2495C519.694 53.0688 523.195 63.4691 523.195 76.4502V77.4468C523.195 85.5216 521.637 92.7788 518.519 99.2183C515.453 105.607 511.032 110.59 505.257 114.167C499.533 117.744 492.94 119.533 485.479 119.533C474.235 119.533 465.112 115.624 458.111 107.804C451.16 99.9849 447.685 89.6357 447.685 76.7568V75.7603ZM461.944 77.4468C461.944 86.646 464.065 94.0309 468.307 99.6016C472.6 105.172 478.324 107.958 485.479 107.958C492.685 107.958 498.409 105.147 502.65 99.5249C506.892 93.8521 509.013 85.9305 509.013 75.7603C509.013 66.6632 506.841 59.3039 502.497 53.6821C498.204 48.0093 492.48 45.1729 485.325 45.1729C478.324 45.1729 472.676 47.9582 468.383 53.5288C464.09 59.0994 461.944 67.0721 461.944 77.4468ZM592.189 109.797C586.67 116.288 578.569 119.533 567.888 119.533C559.047 119.533 552.301 116.978 547.65 111.867C543.05 106.705 540.725 99.0905 540.674 89.0225V35.0537H554.856V88.6392C554.856 101.211 559.967 107.498 570.188 107.498C581.023 107.498 588.229 103.46 591.806 95.3853V35.0537H605.988V118H592.496L592.189 109.797ZM667.7 47.7793C665.553 47.4215 663.228 47.2427 660.724 47.2427C651.422 47.2427 645.111 51.2035 641.789 59.125V118H627.606V35.0537H641.405L641.635 44.6362C646.286 37.2257 652.879 33.5205 661.414 33.5205C664.173 33.5205 666.269 33.8783 667.7 34.5938V47.7793ZM21.0713 199.054L21.4546 208.253C27.5363 201.098 35.7389 197.521 46.0625 197.521C57.6637 197.521 65.5597 201.967 69.7505 210.859C72.5103 206.873 76.0877 203.653 80.4829 201.2C84.9292 198.747 90.1676 197.521 96.1982 197.521C114.392 197.521 123.643 207.154 123.949 226.421V282H109.767V227.265C109.767 221.336 108.413 216.916 105.704 214.002C102.995 211.038 98.4469 209.556 92.0586 209.556C86.7946 209.556 82.425 211.14 78.9497 214.309C75.4744 217.427 73.4557 221.643 72.8936 226.958V282H58.6348V227.648C58.6348 215.587 52.7319 209.556 40.9263 209.556C31.6248 209.556 25.262 213.517 21.8379 221.438V282H7.65576V199.054H21.0713ZM179.834 283.533C168.591 283.533 159.443 279.854 152.39 272.494C145.337 265.084 141.811 255.194 141.811 242.827V240.22C141.811 231.992 143.37 224.658 146.487 218.219C149.656 211.728 154.051 206.669 159.673 203.04C165.346 199.36 171.479 197.521 178.071 197.521C188.855 197.521 197.236 201.072 203.216 208.176C209.195 215.28 212.185 225.45 212.185 238.687V244.59H155.993C156.198 252.767 158.574 259.385 163.123 264.445C167.722 269.453 173.548 271.958 180.601 271.958C185.61 271.958 189.851 270.935 193.327 268.891C196.802 266.847 199.843 264.138 202.449 260.765L211.112 267.511C204.161 278.193 193.736 283.533 179.834 283.533ZM178.071 209.173C172.347 209.173 167.543 211.268 163.659 215.459C159.775 219.599 157.373 225.425 156.453 232.938H198.003V231.864C197.594 224.658 195.652 219.088 192.177 215.152C188.701 211.166 184 209.173 178.071 209.173ZM268.76 211.779C266.614 211.422 264.288 211.243 261.784 211.243C252.483 211.243 246.171 215.203 242.849 223.125V282H228.667V199.054H242.466L242.696 208.636C247.347 201.226 253.939 197.521 262.474 197.521C265.234 197.521 267.329 197.878 268.76 198.594V211.779ZM313.606 271.958C318.666 271.958 323.087 270.424 326.869 267.358C330.651 264.292 332.746 260.458 333.155 255.859H346.57C346.315 260.612 344.679 265.135 341.664 269.428C338.649 273.721 334.611 277.145 329.552 279.7C324.543 282.256 319.228 283.533 313.606 283.533C302.312 283.533 293.317 279.777 286.622 272.264C279.978 264.7 276.656 254.377 276.656 241.293V238.917C276.656 230.842 278.138 223.662 281.103 217.375C284.067 211.089 288.309 206.209 293.828 202.733C299.399 199.258 305.966 197.521 313.53 197.521C322.831 197.521 330.548 200.306 336.681 205.876C342.865 211.447 346.161 218.679 346.57 227.571H333.155C332.746 222.205 330.702 217.81 327.022 214.386C323.393 210.91 318.896 209.173 313.53 209.173C306.324 209.173 300.728 211.779 296.741 216.992C292.806 222.154 290.838 229.641 290.838 239.454V242.137C290.838 251.694 292.806 259.053 296.741 264.215C300.676 269.377 306.298 271.958 313.606 271.958ZM376.698 209.096C382.984 201.379 391.161 197.521 401.229 197.521C418.759 197.521 427.6 207.41 427.753 227.188V282H413.571V227.111C413.52 221.132 412.14 216.711 409.432 213.849C406.774 210.987 402.609 209.556 396.936 209.556C392.336 209.556 388.299 210.783 384.824 213.236C381.348 215.689 378.64 218.909 376.698 222.895V282H362.516V164.25H376.698V209.096ZM507.173 178.969V199.054H522.659V210.016H507.173V261.455C507.173 264.777 507.863 267.281 509.243 268.968C510.623 270.603 512.974 271.421 516.296 271.421C517.931 271.421 520.18 271.114 523.042 270.501V282C519.311 283.022 515.683 283.533 512.156 283.533C505.819 283.533 501.041 281.617 497.821 277.784C494.601 273.951 492.991 268.508 492.991 261.455V210.016H477.889V199.054H492.991V178.969H507.173ZM534.004 239.76C534.004 231.634 535.589 224.326 538.757 217.835C541.977 211.345 546.423 206.336 552.096 202.81C557.82 199.284 564.336 197.521 571.645 197.521C582.939 197.521 592.062 201.43 599.012 209.25C606.014 217.069 609.515 227.469 609.515 240.45V241.447C609.515 249.522 607.956 256.779 604.838 263.218C601.772 269.607 597.351 274.59 591.576 278.167C585.852 281.744 579.259 283.533 571.798 283.533C560.554 283.533 551.432 279.624 544.43 271.804C537.48 263.985 534.004 253.636 534.004 240.757V239.76ZM548.263 241.447C548.263 250.646 550.384 258.031 554.626 263.602C558.919 269.172 564.643 271.958 571.798 271.958C579.004 271.958 584.728 269.147 588.97 263.525C593.212 257.852 595.333 249.931 595.333 239.76C595.333 230.663 593.16 223.304 588.816 217.682C584.523 212.009 578.799 209.173 571.645 209.173C564.643 209.173 558.996 211.958 554.703 217.529C550.41 223.099 548.263 231.072 548.263 241.447ZM685.485 178.969V199.054H700.97V210.016H685.485V261.455C685.485 264.777 686.175 267.281 687.555 268.968C688.935 270.603 691.285 271.421 694.607 271.421C696.243 271.421 698.492 271.114 701.354 270.501V282C697.623 283.022 693.994 283.533 690.468 283.533C684.131 283.533 679.352 281.617 676.132 277.784C672.913 273.951 671.303 268.508 671.303 261.455V210.016H656.201V199.054H671.303V178.969H685.485ZM731.788 209.096C738.074 201.379 746.251 197.521 756.319 197.521C773.848 197.521 782.69 207.41 782.843 227.188V282H768.661V227.111C768.61 221.132 767.23 216.711 764.521 213.849C761.864 210.987 757.699 209.556 752.026 209.556C747.426 209.556 743.389 210.783 739.914 213.236C736.438 215.689 733.73 218.909 731.788 222.895V282H717.605V164.25H731.788V209.096ZM838.499 283.533C827.255 283.533 818.107 279.854 811.054 272.494C804.001 265.084 800.475 255.194 800.475 242.827V240.22C800.475 231.992 802.034 224.658 805.151 218.219C808.32 211.728 812.715 206.669 818.337 203.04C824.01 199.36 830.143 197.521 836.735 197.521C847.519 197.521 855.9 201.072 861.88 208.176C867.859 215.28 870.849 225.45 870.849 238.687V244.59H814.657C814.862 252.767 817.238 259.385 821.787 264.445C826.386 269.453 832.212 271.958 839.265 271.958C844.274 271.958 848.515 270.935 851.991 268.891C855.466 266.847 858.507 264.138 861.113 260.765L869.776 267.511C862.825 278.193 852.4 283.533 838.499 283.533ZM836.735 209.173C831.011 209.173 826.207 211.268 822.323 215.459C818.439 219.599 816.037 225.425 815.117 232.938H856.667V231.864C856.258 224.658 854.316 219.088 850.841 215.152C847.366 211.166 842.664 209.173 836.735 209.173ZM21.1479 362.054L21.6079 372.479C27.9451 364.507 36.2244 360.521 46.4458 360.521C63.9754 360.521 72.8169 370.41 72.9702 390.188V445H58.7881V390.111C58.737 384.132 57.3571 379.711 54.6484 376.849C51.9909 373.987 47.8257 372.556 42.1528 372.556C37.5532 372.556 33.5158 373.783 30.0405 376.236C26.5653 378.689 23.8566 381.909 21.9146 385.895V445H7.73242V362.054H21.1479ZM128.779 446.533C117.535 446.533 108.387 442.854 101.334 435.494C94.2817 428.084 90.7554 418.194 90.7554 405.827V403.22C90.7554 394.992 92.3141 387.658 95.4316 381.219C98.6003 374.728 102.995 369.669 108.617 366.04C114.29 362.36 120.423 360.521 127.016 360.521C137.799 360.521 146.181 364.072 152.16 371.176C158.14 378.28 161.129 388.45 161.129 401.687V407.59H104.938C105.142 415.767 107.518 422.385 112.067 427.445C116.667 432.453 122.493 434.958 129.545 434.958C134.554 434.958 138.796 433.935 142.271 431.891C145.746 429.847 148.787 427.138 151.394 423.765L160.056 430.511C153.106 441.193 142.68 446.533 128.779 446.533ZM127.016 372.173C121.292 372.173 116.488 374.268 112.604 378.459C108.719 382.599 106.317 388.425 105.397 395.938H146.947V394.864C146.538 387.658 144.596 382.088 141.121 378.152C137.646 374.166 132.944 372.173 127.016 372.173ZM205.439 392.334L223.837 362.054H240.396L213.258 403.067L241.239 445H224.834L205.669 413.953L186.504 445H170.022L198.003 403.067L170.865 362.054H187.271L205.439 392.334ZM274.74 341.969V362.054H290.225V373.016H274.74V424.455C274.74 427.777 275.43 430.281 276.81 431.968C278.189 433.603 280.54 434.421 283.862 434.421C285.498 434.421 287.746 434.114 290.608 433.501V445C286.878 446.022 283.249 446.533 279.723 446.533C273.385 446.533 268.607 444.617 265.387 440.784C262.167 436.951 260.558 431.508 260.558 424.455V373.016H245.456V362.054H260.558V341.969H274.74ZM361.212 445H347.03V327.25H361.212V445ZM418.401 446.533C407.157 446.533 398.009 442.854 390.957 435.494C383.904 428.084 380.377 418.194 380.377 405.827V403.22C380.377 394.992 381.936 387.658 385.054 381.219C388.222 374.728 392.618 369.669 398.239 366.04C403.912 362.36 410.045 360.521 416.638 360.521C427.421 360.521 435.803 364.072 441.782 371.176C447.762 378.28 450.751 388.45 450.751 401.687V407.59H394.56C394.764 415.767 397.14 422.385 401.689 427.445C406.289 432.453 412.115 434.958 419.167 434.958C424.176 434.958 428.418 433.935 431.893 431.891C435.368 429.847 438.409 427.138 441.016 423.765L449.678 430.511C442.728 441.193 432.302 446.533 418.401 446.533ZM416.638 372.173C410.914 372.173 406.11 374.268 402.226 378.459C398.341 382.599 395.939 388.425 395.02 395.938H436.569V394.864C436.16 387.658 434.218 382.088 430.743 378.152C427.268 374.166 422.566 372.173 416.638 372.173ZM493.528 425.758L514.073 362.054H528.562L498.817 445H488.008L457.958 362.054H472.446L493.528 425.758ZM575.554 446.533C564.311 446.533 555.163 442.854 548.11 435.494C541.057 428.084 537.531 418.194 537.531 405.827V403.22C537.531 394.992 539.09 387.658 542.207 381.219C545.376 374.728 549.771 369.669 555.393 366.04C561.065 362.36 567.198 360.521 573.791 360.521C584.575 360.521 592.956 364.072 598.936 371.176C604.915 378.28 607.905 388.45 607.905 401.687V407.59H551.713C551.917 415.767 554.294 422.385 558.842 427.445C563.442 432.453 569.268 434.958 576.321 434.958C581.329 434.958 585.571 433.935 589.046 431.891C592.522 429.847 595.562 427.138 598.169 423.765L606.832 430.511C599.881 441.193 589.455 446.533 575.554 446.533ZM573.791 372.173C568.067 372.173 563.263 374.268 559.379 378.459C555.495 382.599 553.093 388.425 552.173 395.938H593.723V394.864C593.314 387.658 591.372 382.088 587.896 378.152C584.421 374.166 579.719 372.173 573.791 372.173ZM639.795 445H625.613V327.25H639.795V445Z" fill="url(#paint0_radial)"/>
<defs>
<radialGradient id="paint0_radial" cx="0" cy="0" r="1" gradientUnits="userSpaceOnUse" gradientTransform="translate(467.5 228) rotate(90) scale(245 470.5)">
<stop stop-color="#EB9038"/>
<stop offset="0.338542" stop-color="#F3C0C6"/>
<stop offset="0.666667" stop-color="#F3C3CF"/>
<stop offset="1" stop-color="#8DC4F3"/>
</radialGradient>
</defs>
</svg>
