<svg width="36" height="62" viewBox="0 0 36 62" fill="none" xmlns="http://www.w3.org/2000/svg">
<path d="M18.334 0.166748C12.667 0.166748 7.16704 3.00006 3.83404 7.83346C1.00004 12.0001 0.167043 17.3335 1.50004 22.6668C2.50004 26.5001 4.50004 35.3335 5.83404 51.0001C5.83404 57.0001 11.5 61.8335 18.334 61.8335C25.167 61.8335 30.834 57.0001 30.834 51.1668C31.334 36.8335 33.667 27.3335 35 23.0001C36.834 16.8335 35.3341 10.1668 31.1671 5.66676C27.6671 2.16676 23.167 0.166748 18.334 0.166748ZM31.834 22.0001C30.5 26.5001 28.1671 36.3335 27.6671 51.0001C27.6671 55.1668 23.5 58.5001 18.5 58.5001C13.334 58.5001 9.33404 55.1668 9.33404 51.0001C8.00004 35.6668 6.16704 26.6668 4.83404 22.0001C3.66704 17.6668 4.33405 13.3335 6.66705 10.0001C9.33405 6.16676 13.834 3.83346 18.5 3.83346C22.334 3.83346 26 5.50006 28.834 8.33346C32 11.6668 33.334 17.0001 31.834 22.0001Z" fill="url(#paint0_radial)"/>
<defs>
<radialGradient id="paint0_radial" cx="0" cy="0" r="1" gradientUnits="userSpaceOnUse" gradientTransform="translate(18.326 0.166748) rotate(90) scale(61.6667 34.891)">
<stop stop-color="#EB9038"/>
<stop offset="0.515625" stop-color="#F3C3CF"/>
<stop offset="1" stop-color="#8DC4F3"/>
</radialGradient>
</defs>
</svg>
