<svg width="19" height="30" viewBox="0 0 19 30" fill="none" xmlns="http://www.w3.org/2000/svg">
<path d="M11 4.5V1.6666C11 0.666601 10.333 0 9.33304 0C8.33304 0 7.66605 0.666601 7.66605 1.6666V4.5C6.50005 5 4.83305 5.8333 3.50005 7.8333C0.333048 12 -0.333952 18.8333 1.66605 28.3333C1.83305 29.1666 2.66605 29.8333 3.66605 29.6666C4.50005 29.5 5.16605 28.6666 5.00005 27.6666C2.83305 17.3333 4.50005 12.1666 6.16605 9.8333C7.50005 8 9.00005 7.5 9.50005 7.5C10 7.6666 11.5 8.1666 12.833 9.8333C14.5 12.1666 16.166 17.1666 14 27.6666C13.833 28.5 14.333 29.5 15.333 29.6666C15.5 29.6666 15.5 29.6666 15.666 29.6666C16.5 29.6666 17.166 29.1666 17.333 28.3333C19.333 19 18.666 12 15.5 7.8333C13.666 5.8333 12.166 4.8333 11 4.5Z" fill="url(#paint0_radial)"/>
<defs>
<radialGradient id="paint0_radial" cx="0" cy="0" r="1" gradientUnits="userSpaceOnUse" gradientTransform="translate(9.50005) rotate(90) scale(29.6924 17.9346)">
<stop stop-color="#EB9038"/>
<stop offset="0.515625" stop-color="#F3C3CF"/>
<stop offset="1" stop-color="#8DC4F3"/>
</radialGradient>
</defs>
</svg>
