<svg width="26" height="31" viewBox="0 0 26 31" fill="none" xmlns="http://www.w3.org/2000/svg">
<path d="M25.0105 16.3042C25.0105 15.6735 24.9461 15.1691 24.8819 14.9168C24.6245 12.8988 24.0458 11.5744 23.7886 11.1329C23.7242 11.0068 23.6598 10.8808 23.5956 10.6916L23.5312 10.6285H23.467C23.4026 10.6285 23.274 10.6285 23.0811 10.6285C21.6662 10.7546 20.5729 11.0699 19.8655 11.3221C19.7369 11.3852 19.6726 11.3852 19.544 11.4483C19.544 11.3852 19.544 11.2591 19.4796 11.196C19.2224 9.43027 18.7079 8.04284 18.4507 7.41225C18.1935 6.71849 17.8075 6.08789 17.486 5.4572C17.4217 5.39423 16.3284 3.56532 14.6563 2.05185C14.3347 1.79958 13.7559 1.23195 12.7912 0.601358C12.727 0.538288 12.6626 0.538291 12.6626 0.538291L12.5984 0.47522L12.534 0.538291C12.534 0.538291 12.4697 0.601358 12.4054 0.601358C10.2832 2.05185 9.06116 3.69146 8.48238 4.51126C8.09656 5.01581 7.19612 6.46631 6.48874 8.23205C5.97422 9.55641 5.78136 10.6285 5.717 11.1329C5.717 11.196 5.71701 11.3221 5.65266 11.3852C5.65266 11.3852 5.33109 11.2591 4.75231 11.0699C4.75231 11.0699 4.68806 11.0699 4.55936 11.0068C3.85197 10.8177 2.88728 10.6285 1.66537 10.5023C1.66537 10.5023 1.66538 10.5023 1.34381 11.3221C1.21521 11.5114 1.15085 11.7636 1.0866 12.0158C0.443467 13.7186 0.18626 15.4843 0.314866 17.3132C0.37912 18.4484 0.572075 19.5205 0.957992 20.5295C1.85833 23.3673 3.5304 25.7637 5.84561 27.5925C6.29578 27.971 7.13186 28.6016 8.35377 29.1692C10.2188 30.0521 11.9552 30.1782 12.7912 30.1782C12.8556 30.1782 12.9199 30.1782 12.9842 30.1782C12.9842 30.1782 15.428 30.1151 17.7433 28.8538C18.0648 28.6646 18.4507 28.4755 18.4507 28.4755C19.0294 28.0971 19.4796 27.7187 19.7369 27.5295C20.9588 26.5205 22.0521 25.3222 22.8881 23.9349C24.0458 22.106 24.5603 20.4033 24.7531 19.5205C25.0105 18.0069 25.0747 16.8717 25.0105 16.3042ZM12.727 24.3132C12.727 25.5745 12.4697 26.8989 12.0838 28.1602C10.5404 27.8448 7.64639 27.025 5.45979 24.6286C3.85197 22.8628 3.14459 20.9078 2.88728 20.2772C2.37285 18.8898 2.1799 17.4394 2.24415 15.9889C2.24415 15.6105 2.37285 14.3492 2.88728 12.7726V12.7096C2.95163 12.7096 2.95163 12.7096 3.01588 12.7096C4.23788 12.8988 5.00962 13.214 5.33109 13.3402C5.33109 13.3402 5.45979 13.4032 5.52404 13.4032C6.8103 13.9078 7.9036 14.8537 8.22516 15.106C10.0902 16.6195 10.9905 18.2592 11.3121 18.8898C11.5051 19.2682 11.6337 19.5835 11.6979 19.8357C12.0195 20.7187 12.4054 21.5385 12.534 22.4844C12.727 23.3042 12.727 23.9349 12.727 24.3132ZM12.6626 17.2502C12.2124 16.4933 11.6979 15.7997 11.1191 15.106C10.8619 14.8537 10.5404 14.4122 10.0258 13.9709C9.83289 13.7817 9.38272 13.4032 8.80394 12.9619C8.41813 12.7096 8.0322 12.4573 7.64639 12.205C7.71064 11.5744 7.83925 11.0068 7.96785 10.3762C8.48237 8.35819 9.31847 6.78156 9.89724 5.89868C10.2188 5.4572 10.7976 4.57433 11.7623 3.62839C12.0838 3.31304 12.341 3.06086 12.6626 2.80859C14.1418 3.94374 15.2994 5.33116 16.1355 6.84463C16.3927 7.34918 16.9715 8.42126 17.3574 9.87165C17.5503 10.6285 17.6789 11.4483 17.8075 12.205C16.65 12.8357 15.6853 13.6555 14.785 14.5384C14.1418 15.1691 13.3701 16.052 12.6626 17.2502ZM21.3446 22.6106C20.7659 23.5565 20.0585 24.4394 19.2868 25.1331C17.8719 26.4574 16.1355 27.4034 14.2061 27.9079C14.4634 27.1512 14.592 26.3943 14.6563 25.5745C14.7206 25.0701 14.7206 24.1871 14.6563 23.1781C14.5276 21.9169 14.2704 20.6556 13.7559 19.4574C14.1418 18.5745 14.6562 17.7546 15.2351 16.9979C16.0711 15.9889 16.8428 15.2952 17.2288 14.9799C18.0005 14.3492 18.9008 13.8447 19.8012 13.4663C20.6373 13.088 21.5376 12.8357 22.4379 12.7096C22.5665 13.214 22.6953 13.6555 22.8239 14.1601C23.0168 15.2952 23.0811 16.1781 23.1454 16.2412C23.1454 17.061 23.0168 19.8357 21.3446 22.6106Z" fill="white"/>
</svg>
